<svg xmlns="http://www.w3.org/2000/svg" viewBox="0 0 500 500">
  <rect x="50" y="50" width="400" height="400" rx="20" fill="#F0F0F0"/>

  <path d="M150 150 L350 150 L350 350 L150 350 Z" fill="#FFFFFF"/>
  <path d="M160 160 L340 160 L340 340 L160 340 Z" fill="#EBEBEB"/>
  
  <path d="M160 160 L340 160 C345 155, 350 155, 350 160 L350 170 C350 175, 345 175, 340 170 L160 170 C155 175, 150 175, 150 170 L150 160 Z" fill="#DBDBDB" transform="translate(0, 30)"/>
  
  <path d="M180 220 L320 220" stroke="#CCCCCC" stroke-width="5" stroke-linecap="round"/>
  <path d="M180 270 L320 270" stroke="#CCCCCC" stroke-width="5" stroke-linecap="round"/>
  <path d="M180 320 L320 320" stroke="#CCCCCC" stroke-width="5" stroke-linecap="round"/>
  
  <path d="M240 390 L260 390 L260 410 L240 410 Z" fill="#5D737E"/>
</svg>